<?xml version="1.0" encoding="utf-8"?>
<!-- Generator: Adobe Illustrator 26.2.1, SVG Export Plug-In . SVG Version: 6.00 Build 0)  -->
<svg version="1.1" id="Panda" xmlns="http://www.w3.org/2000/svg" xmlns:xlink="http://www.w3.org/1999/xlink" x="0px" y="0px"
	 viewBox="0 0 184.9 177.4" style="enable-background:new 0 0 184.9 177.4;" xml:space="preserve">
<style type="text/css">
	.st0{fill:none;}
	.st1{fill:#FFFFFF;}
	.st2{fill:#94BEE6;}
</style>
<g>
	<g>
		<path class="st0" d="M90.8,20.9L90.8,20.9C90.8,20.9,90.8,20.9,90.8,20.9z"/>
		<path d="M90.8,20.9L90.8,20.9C90.8,20.9,90.8,20.9,90.8,20.9z"/>
		<path d="M184.1,87.7l-0.4-0.3c-9-5-23.3-22.5-30.5-32.5c-0.1-0.1-0.7-0.9-1.2-1.7c9.8-8.3,14.1-18.4,12.2-28.5
			c-1.7-9.2-6.6-17-13.2-20.7c-3.9-2.2-8.2-2.9-12.5-2c-1.2,0.3-4.7,2.1-7.4,3.9c0.6-1.2,1.2-2.3,1.9-2.8l1.5-1.2
			c0.7-0.6,0.3-1.8-0.6-1.8L131.9,0c-4-0.2-7.4,1.1-10.3,3.7c-5.6,5.1-7.3,13.8-7.8,18.9c-6.6-1.7-14.2-2.4-23-1.7c0,0,0,0,0,0
			c-7.6-0.1-14.2,0.7-20,2.2c-0.5-5-2.1-14.1-7.9-19.3C60,1.1,56.6-0.1,52.6,0.1l-1.9,0.1c-0.9,0-1.3,1.2-0.6,1.8l1.5,1.2
			c0.7,0.5,1.3,1.6,1.9,2.8c-2.8-1.8-6.2-3.6-7.4-3.9c-4.3-0.9-8.6-0.3-12.5,2C26.9,7.9,22,15.6,20.3,24.8
			c-1.9,10.2,2.6,20.4,12.5,28.8c-0.3,0.5-0.7,1-0.9,1.2c-7,9.9-21.6,27.9-30.8,32.9L0.8,88C0.2,88.3,0,88.9,0,89.4
			c0,0.7,0.4,1.4,1.2,1.7c0.3,0.1,5.6,2.6,11.8,2.4c-2.4,8.7-6.9,32.7,13.9,56.4l0.7,0.3c0.7,0.3,1.4-0.3,1.4-1c0-0.1,0-0.2-0.1-0.4
			c0-0.1-1.4-2.4-1.4-6.8c1.6,3.7,3.9,7.8,6.9,11.9c3,4.1,6.8,8,11.5,11.4c1.2,0.9,2.8,0,2.8-1.4c0-0.1,0-0.1,0-0.2
			c-0.2-2.5-0.5-5.1-0.7-7.6c2.6,3.6,10.2,14,14.3,16.8l1.4,0.9c1,0.7,2.3-0.4,1.8-1.5l-0.6-1.5c0-0.1-3.3-8.9-5-16.2
			c4.7,8.8,15.5,21.3,29.8,22.8c2.3,0.3,6.3,0.1,8.1-0.2c17.2-2.6,22.5-14.4,27-22.9c-1.7,7.4-5,16.1-5,16.2l-0.6,1.5
			c-0.4,1.1,0.8,2.1,1.9,1.5l1.4-0.9c4.2-2.7,11.8-13.2,14.3-16.8c-0.2,2.4-0.5,5-0.7,7.6c0,0.1,0,0.1,0,0.2c0,1.4,1.6,2.3,2.8,1.4
			c4.7-3.3,8.5-7.3,11.5-11.4s5.2-8.2,6.9-11.9c0.1,4.4-1.3,6.7-1.4,6.8c0,0.1-0.1,0.2-0.1,0.4c0,0.7,0.7,1.3,1.4,1l0.6-0.3
			c20.9-23.6,16.4-47.7,13.9-56.4c6.2,0.2,11.5-2.3,11.8-2.4c0.8-0.3,1.2-0.9,1.2-1.6C184.9,88.6,184.6,88,184.1,87.7z"/>
	</g>
	<g>
		<path class="st1" d="M90.9,24.3L90.9,24.3C90.9,24.3,90.9,24.3,90.9,24.3z"/>
		<path class="st1" d="M90.9,24.3C90.9,24.3,90.9,24.3,90.9,24.3C90.9,24.3,90.9,24.3,90.9,24.3z"/>
		<path class="st1" d="M148.1,55.4c-0.1-0.1-12.3-31.1-56.6-30.2c0,0-34.1-2.5-54.4,30.1C30,67.7,6,89.2,6.5,89.3
			c1.1,0.2,2.1,0.3,2.8,0.5c0.2,0.1,4.8,1.1,10.4,0.9c-7.7,33.4,12.5,50.6,38.1,53.6c13.3,1.6,17.7,17.8,30.3,23.5
			c1.9,0.9,7.8-0.3,9.4-0.6c15.8-2.4,22.8-22.1,27.2-23.4c2.3-0.6,8.4-1.9,23.7-6.6c20.4-6.3,18-43,16.9-46.9
			c5.7,0.2,12.9-1.4,13.1-1.4C179.1,88.7,158,72.4,148.1,55.4z"/>
	</g>
	<path class="st2" d="M178.4,89C178.4,89,178.4,89,178.4,89l-13.7-3.4c-0.5-0.1-0.8,0.4-0.6,0.8c3.2,6.7-2.3,35.9-2.3,35.9
		c-0.3-2.8-2.4-5.7-3.7-7.2c-0.2-0.2-0.6-0.1-0.5,0.2c0.5,6.2-12.8,22.4-12.8,22.4c1.1-1.7,0.1-5.5-0.4-7.3
		c-0.1-0.4-0.6-0.4-0.8-0.1c-2.4,4.8-10.3,8.4-10.3,8.4c1-5.3-3.9-33.5-3.9-33.5s0,0-0.1,0c0.1,0,0.2,0.1,0.4,0.1
		c0.9,0.2,1.7,0,2.3-0.2c0.4-0.1,0.4-0.7,0-0.8c-2.9-1.3-7-7.8-7-7.8c0.4,18.4-7.6,42.6-7.6,42.6c-10.5,27.1-25.4,26.4-25.4,26.4
		s-14.1,1.1-24.6-26.1c0,0-7.9-24.2-7.6-42.6c0,0-4.1,6.4-7,7.8c-0.4,0.2-0.3,0.7,0,0.8c0.6,0.2,1.5,0.4,2.3,0.2
		c0.1,0,0.2-0.1,0.4-0.1c-0.1,0-0.1,0-0.1,0s-5,28.3-3.9,33.5c0,0-7.9-3.6-10.3-8.4c-0.2-0.3-0.7-0.3-0.8,0.1
		c-0.6,1.9-1.5,5.6-0.4,7.3c0,0-13.2-16.2-12.8-22.4c0-0.3-0.3-0.4-0.5-0.2c-1.2,1.5-3.4,4.4-3.7,7.2c0,0-5.5-29.2-2.3-35.9
		c0.2-0.4-0.1-0.9-0.6-0.8L6.5,89.2c0,0-0.1-0.1,0,0c6.2,2.9,13.1-1.2,10,5.8c0,0-6.3,24.8,7.1,45.1c0,0-1.8-9.1,1.1-9.8
		c0,0,2.2-0.9,3,3.1c0,0,4.9,16.9,17.2,26.4c0,0-1.8-14.6-0.1-14.4c0,0,1.5-0.7,2.7,3.1c0,0,3.9,8.6,11.7,16.1
		c0,0-6.1-18.1-2.4-18.9c0,0,0.8-0.5,2.4,0.7c0,0,13.2,27.5,32.8,28c20.7,1.7,33.6-28.3,33.6-28.3c1.6-1.2,2.4-0.7,2.4-0.7
		c3.7,0.8-2.4,18.9-2.4,18.9c7.8-7.6,11.7-16.1,11.7-16.1c1.1-3.8,2.7-3.1,2.7-3.1c1.8-0.2-0.1,14.4-0.1,14.4
		c12.3-9.5,17.2-26.4,17.2-26.4c0.9-3.9,3-3.1,3-3.1c3,0.7,1.1,9.8,1.1,9.8c13.4-20.3,7.1-45.1,7.1-45.1
		C165.3,87.7,171.3,91.8,178.4,89z"/>
	<path class="st1" d="M120.8,94.9c0.8,6.5,0.6,14.3-0.8,22.8c-2.3,14.4-7.4,28.2-13.6,36.9c-3.1,4.4-8.2,9.3-13.6,9.3
		c-5.7-0.1-11.2-5.1-14.5-9.8c-6.2-8.8-11.3-22.6-13.6-37c-1.3-8.3-1.6-16-0.8-22.4c0.6-5.2,1.9-9.7,3.9-13c3-5.1,7.4-7.4,13.2-7
		c0.4,1.6,1.8,3,3,4c2,1.7,4.5,2.9,6.9,3.9c0.2,0.1,0.3,0.1,0.5,0.2c-0.1,1.2-0.2,2.9-0.3,4.1c-1.1,0.1-2.5,0.4-4.2,0.8
		c-2.8,0.7-6.4,1.6-9.2,2.4c-1.5,0.4-3,0.8-4.1,1.1c-1.6,0.2-1.9,0.4-2.1,0.6l-0.2,1.5h0v0l-0.1,0.3l0,0.9v0.1l-0.1,2
		c-3,26.9,4.4,49.1,12.6,58.4c2.8,3.1,5.3,4.9,8.8,5.3l0-3.6h0l0,3.6c3-0.4,6-2.2,8.8-5.3c8.2-9.2,15.6-31.5,12.6-58.3l-0.1-2.1
		v-0.9l-0.1-0.3l-0.2-1.5c-0.2-0.2-0.5-0.4-2.1-0.6c-1.1-0.3-2.6-0.7-4.1-1.1c-2.9-0.8-6.4-1.8-9.2-2.4c-1.4-0.3-2.6-0.6-3.6-0.8
		c-0.2-1.2-0.6-2.9-0.7-4.1c0.2-0.1,0.5-0.1,0.7-0.2c2.4-0.9,4.9-2.2,7-3.9c1.2-1,2.5-2.3,3-3.9c5.4-0.1,9.6,2.3,12.4,7.2
		C118.9,85.4,120.2,89.7,120.8,94.9z"/>
	<path d="M124.7,98.9c0-1.1-0.1-2.9-0.5-5.6c0,0-2.1-9.8-4.1-13.2c-3.7-6.4-9.6-9.4-16.9-8.8c0.4,0.6,0.6,1.2,0.7,1.9
		c0.1,0.6,0,1.1-0.1,1.6c5.8-0.4,10.3,1.9,13.2,7c1.9,3.3,3.2,7.9,3.8,13.1c0.8,6.5,0.6,14.3-0.8,22.8c-2.3,14.4-7.4,28.2-13.6,36.9
		c-3.1,4.4-8.3,9.3-13.7,9.3c-5.7-0.2-11.1-5.1-14.4-9.8c-6.2-8.8-11.3-22.6-13.6-37c-1.3-8.3-1.6-16-0.8-22.4
		c0.6-5.2,1.9-9.7,3.9-13c3-5.1,7.4-7.4,13.2-7c-0.1-0.5-0.2-1.1-0.1-1.6c0.1-0.7,0.3-1.3,0.7-1.9c-7.3-0.6-13.2,2.4-16.9,8.8
		c-2,3.4-3.4,7.9-4.1,13.2c0,0.4-0.4,2.3-0.5,5c-0.3,5.9,0,12.5,1.2,19.6c2.4,14.9,8.1,29,14.2,38.5C82.2,167,91.5,167,91.7,167
		c0,0,0,0,0,0c0.7,0.1,1.4,0.2,2.1,0.2c5.8-0.6,10.6-3.5,15.5-10.4c6.5-9.1,11.8-23.5,14.2-38.4C124.7,111.4,125,104.8,124.7,98.9z"
		/>
	<path d="M104,71.2C104.1,71.2,104.1,71.2,104,71.2c0-0.1-0.1-0.2-0.1-0.3c-0.3-0.8-0.8-1.5-1.4-2c-0.8-0.7-1.8-1.2-2.8-1.6
		c-0.4-0.1-0.8-0.2-1.1-0.3c-1.8-0.6-3.8-0.7-5.7-0.8c0,0,0,0-0.1,0c0,0,0,0-0.1,0c-0.1,0-0.3,0-0.4,0c-0.1,0-0.3,0-0.4,0
		c0,0,0,0-0.1,0c0,0,0,0-0.1,0c-1.9,0.1-3.9,0.2-5.7,0.8c-0.4,0.1-0.8,0.2-1.1,0.3c-1,0.3-2,0.8-2.8,1.6c-0.6,0.5-1.1,1.2-1.4,2
		c-0.1,0.1-0.1,0.2-0.2,0.3c0,0,0.1,0,0.1,0c-0.1,0.4-0.2,0.8-0.3,1.2c-0.1,1.2,0.5,2.5,1.2,3.5s1.4,2,2.3,2.7
		c2,1.7,4.5,2.9,6.9,3.9c0.2,0.1,1.5,0.4,1.6,0.4c0.2-0.1,1.1-0.4,1.2-0.4c2.4-1,4.9-2.2,6.9-3.9c0.9-0.8,1.7-1.7,2.3-2.7
		c0.6-1,1.2-2.3,1.2-3.5C104.3,72,104.2,71.6,104,71.2z"/>
	<path class="st2" d="M63.6,25.4c0,0-7.3-20.6-26.5-15.1c0,0,17.8-1.7,22.8,16.9L63.6,25.4z"/>
	<path class="st2" d="M122.5,25.4c0,0,7.3-20.6,26.5-15.1c0,0-17.8-1.7-22.8,16.9L122.5,25.4z"/>
	<g>
		<path d="M137.4,94.6l-0.3,0c-1.9-0.3-2.8-1.2-3.2-2.2c-0.3-0.6-0.1-1.3,0.4-1.7c5-4.4,7.4-9.5,7.3-15
			c-0.3-11.1-11.1-20.7-15.1-23.9c0.7-0.1,1.9,0,3,0.3l0.6,0.2c1.3,0.3,2.4-1.1,1.7-2.2l-0.3-0.5c-1.3-2.2-3.2-3.6-5.6-4
			c-6.1-0.9-15.2,4.5-27.1,15.9c-0.2,0.2-0.4,0.4-0.5,0.5c-0.6,1-4.8,1.6-5.6,1.5c-1.7-0.3-4.3-0.9-5-1.5c-0.1-0.1-0.3-0.2-0.5-0.5
			c-11.9-11.4-21-16.8-27.1-15.9c-2.4,0.3-4.4,1.7-5.6,4l-0.3,0.5c-0.7,1.2,0.4,2.6,1.7,2.2l0.6-0.2c1.1-0.3,2.3-0.3,3-0.3
			c-4,3.2-14.8,12.8-15.1,23.9c-0.2,5.5,2.3,10.6,7.3,15c0.5,0.4,0.7,1.1,0.4,1.7c-0.4,0.9-1.3,1.9-3.2,2.2l-0.3,0
			c-0.9,0.1-1.5,1-1.3,1.9l0.1,0.3c0.3,1.3,1.6,3.6,4.2,4.4c0.6,0.2,1.1,0.2,1.7,0.2c2.1,0,4.4-0.9,7.1-2.8c0.1-1.2,0.2-2.3,0.3-3.4
			c-5.5,4.3-9.5,4.2-10.5,3.9c-0.3-0.1-0.6-0.2-0.8-0.3c3.9-1.7,4.8-5.4,4.6-7.4L54,90.4l-0.7-0.5c-5.7-4.2-8.5-8.9-8.4-13.9
			c0.3-12.2,17-23.2,17.2-23.3l0.8-0.6l-0.8-1c0-1.3,0.2-2.4-0.8-3.1c-0.1-0.1-0.2-0.2-0.4-0.2c7.9,0.5,20.5,11,25.9,15.7
			c0.3,0.3,0.5,0.5,0.7,0.6c1.2,1,3.1,1.6,4.8,2c1.8-0.4,3.7-1,4.8-2c0.1-0.1,0.4-0.3,0.7-0.6c5.3-4.7,18-15.2,25.9-15.7
			c-0.1,0.1,1.2,0.5,1.1,0.6c-1,0.7-2.2,1.5-2.2,2.7l0.9,0.8l-0.9,0.7c0.2,0.1,16.8,11.1,17.2,23.3c0.1,5.1-2.7,9.8-8.4,13.9
			l-0.7,0.5l-0.1,0.8c-0.2,2,1,4.2,4.9,5.9c0.2-0.4,0.3-0.5,0.1,0.1c-0.1,0-0.1,0-0.1-0.1c-0.3,0.6-0.9,1.9-1.1,1.9
			c-1,0.2-5,0.4-10.5-4c0.1,0.8,0.2,1.6,0.2,2.4c3.3,2.6,6.1,3.9,8.5,3.9c0.6,0,1.2-0.1,1.7-0.2c2.6-0.7,3.9-3.1,4.2-4.4l0.1-0.3
			C138.9,95.6,138.3,94.7,137.4,94.6z"/>
		<path d="M134.4,99c0.2-0.1,0.8-1.3,1.1-1.9c-3.8-1.7-5.1-3.8-4.9-5.9l0.1-0.8l0.7-0.5c5.7-4.2,8.5-8.9,8.4-13.9
			c-0.4-12.2-17-23.2-17.2-23.3l0.9-0.7l-0.9-0.8c0-1.3,1.2-2,2.2-2.7c0.1-0.1-1.2-0.5-1.1-0.6c-7.9,0.5-20.5,11-25.9,15.7
			c-0.3,0.3-0.5,0.5-0.7,0.6c-1.2,1-3.1,1.6-4.8,2c-1.8-0.4-3.7-1-4.8-2c-0.1-0.1-0.3-0.3-0.7-0.6c-5.3-4.7-18-15.2-25.9-15.7
			c0.1,0.1,0.2,0.1,0.4,0.2c1,0.7,0.8,1.8,0.8,3.1l0.8,1l-0.8,0.6C61.9,52.8,45.3,63.8,44.9,76c-0.1,5.1,2.7,9.8,8.4,13.9l0.7,0.5
			l0.1,0.8c0.2,2.1-0.6,5.8-4.6,7.4c0.2,0.2,0.5,0.3,0.8,0.3c1,0.2,5,0.4,10.5-3.9c0.1-0.1,0.2-0.2,0.3-0.3
			c0.8-5.5,1.1-10.3,3.4-13.9c4.2-6.7,10.9-9.8,19.3-9.2c1.1-1.7,3.1-3.1,5-3.8c1.1-0.5,2.3-0.7,3.6-0.9c1.2,0.2,2.4,0.4,3.6,0.9
			c1.9,0.8,3.9,2.1,5,3.8c8.4-0.7,15.1,2.5,19.3,9.2c2.3,3.6,2.5,8.5,3.4,13.9c0.1,0.1,0.2,0.2,0.3,0.2
			C129.4,99.4,133.5,99.3,134.4,99z"/>
		<path d="M135.5,97.1c0.1,0,0.1,0,0.1,0.1C135.8,96.6,135.7,96.7,135.5,97.1z"/>
	</g>
	<g>
		<ellipse transform="matrix(2.333787e-03 -1 1 2.333787e-03 48.0016 185.6428)" class="st1" cx="117" cy="68.8" rx="3" ry="4.5"/>
		<ellipse transform="matrix(2.333787e-03 -1 1 2.333787e-03 1.3894 138.7133)" class="st1" cx="70.2" cy="68.7" rx="3" ry="4.5"/>
		<g>
			<path class="st1" d="M86.2,71.6c3.6-1.9,7.8-1.6,11.3,0.3c1.1,0.6,5.5-0.7,3.9-1.5c-5.7-3-12.9-2.9-18.7,0.2
				c-0.9,0.5-0.5,1,0.2,1.4C83.8,72.5,85.4,72,86.2,71.6L86.2,71.6z"/>
		</g>
		<circle cx="117" cy="68.8" r="1.1"/>
		<circle cx="70.2" cy="68.7" r="1.1"/>
	</g>
	<g>
		<path d="M92.4,159.4"/>
		<path d="M113.1,91L93.5,86l-0.3-4.1h-1.5L91.3,86L71.8,91c0,0-7,58.3,20.7,68.4C120.1,149.3,113.1,91,113.1,91z"/>
	</g>
	<g>
		<g id="XMLID_00000123432726972419158610000002984335831005943439_">
			<g>
				<path class="st1" d="M111.7,113.2c0,0.1,0,0.1,0,0.2h0C111.7,113.3,111.7,113.2,111.7,113.2z"/>
				<path class="st1" d="M111.7,113.1L111.7,113.1C111.7,113.1,111.7,113.1,111.7,113.1C111.7,113.1,111.7,113.1,111.7,113.1z"/>
				<path class="st1" d="M111.7,113.1C111.7,113.1,111.7,113.1,111.7,113.1c0,0.1,0,0.2,0,0.3h-0.2c0-0.1,0-0.2,0-0.2c0,0,0,0,0,0
					L111.7,113.1z"/>
				<path class="st1" d="M110.6,113.5c0-0.6,0.2-0.9,0.5-1c0.1-0.1,0.2-0.1,0.3,0c0.1,0.1,0.2,0.3,0.3,0.6l-0.2,0c0,0,0,0,0,0
					c0-0.4-0.1-0.5-0.2-0.5c0,0-0.1,0-0.1,0c-0.2,0.1-0.4,0.5-0.4,1.1h0c0-0.1,0-0.1,0-0.2H110.6z"/>
				<path class="st1" d="M110.8,113.5c0,0.1,0,0.1,0,0.2l-0.2,0c0-0.1,0-0.1,0-0.2L110.8,113.5z"/>
				<path class="st1" d="M111.7,113.3c-0.8,11.1-3,21-6.4,28.7c-3.5,7.8-7.9,12.7-12.6,13.9l0.1-0.2c0,0,0,0-0.1,0
					c4.7-1.3,9.1-6,12.5-13.8c3.4-7.8,5.6-17.7,6.4-28.9c0,0.1,0,0.2,0,0.2H111.7z"/>
				<path class="st1" d="M104.5,140.9c3.3-7.4,5.4-16.9,6.1-27.4h0c0,0.1,0,0.1,0,0.2l0.2,0c-0.7,10.5-2.9,20-6.1,27.3
					c-3.3,7.4-7.4,12-12,13.2l0-0.2c0,0,0,0-0.1,0C97.2,152.8,101.3,148.3,104.5,140.9z"/>
				<path class="st1" d="M92.7,154l0,0.2l0,0c0,0,0,0,0,0l-0.1-0.2C92.7,154,92.7,154,92.7,154C92.7,154,92.7,154,92.7,154z"/>
				<polygon class="st1" points="92.7,154.2 92.7,154.2 92.7,154.2 				"/>
				<path class="st1" d="M92.7,154.2C92.7,154.2,92.7,154.2,92.7,154.2L92.7,154.2C92.7,154.2,92.7,154.2,92.7,154.2z"/>
				<path class="st1" d="M92.6,155.8l-0.1,0.2l0,0c0,0,0,0,0,0l-0.1-0.2C92.5,155.8,92.6,155.8,92.6,155.8
					C92.6,155.8,92.6,155.8,92.6,155.8z"/>
				<polygon class="st1" points="92.6,156 92.6,156 92.6,156 				"/>
				<path class="st1" d="M92.6,156C92.6,156,92.6,156,92.6,156L92.6,156C92.6,156,92.6,156,92.6,156z"/>
				<path class="st1" d="M74.9,113.4c0.7,10.6,2.8,20.1,6,27.5c3.2,7.4,7.3,11.9,11.8,13.2c0,0,0,0-0.1,0l0.1,0.2
					c-4.6-1.2-8.7-5.8-12-13.3c-3.2-7.4-5.3-16.9-6-27.5L74.9,113.4L74.9,113.4z"/>
				<polygon class="st1" points="74.9,113.4 74.9,113.4 74.8,113.4 				"/>
				<path class="st1" d="M80.1,141.9c-3.4-7.8-5.6-17.7-6.3-28.8c0,0,0,0,0,0c0-0.6,0.2-0.7,0.2-0.7c0.1-0.1,0.2,0,0.2,0
					c0.2,0.1,0.4,0.5,0.4,1h0.1l-0.1,0c0.7,10.6,2.8,20.1,6,27.5c3.3,7.5,7.4,12.1,12,13.3v0c0,0,0,0,0,0h0v0
					c4.6-1.2,8.7-5.8,12-13.2c3.2-7.4,5.4-16.8,6.1-27.3h0c0-0.5,0.2-0.9,0.4-1.1c0.1,0,0.1,0,0.1,0c0,0,0.1,0.1,0.2,0.5
					c-0.8,11.1-3,21.1-6.4,28.9c-3.4,7.8-7.8,12.5-12.5,13.8C87.9,154.5,83.5,149.7,80.1,141.9z"/>
				<path class="st1" d="M74.7,113.4c0-0.5-0.2-0.9-0.4-1c-0.1,0-0.1-0.1-0.2,0c-0.1,0-0.2,0.2-0.2,0.7c0,0,0-0.1,0-0.1l-0.2,0
					c0-0.5,0.2-0.7,0.3-0.8c0.1-0.1,0.3-0.1,0.4,0c0.2,0.2,0.5,0.6,0.5,1.2H74.7L74.7,113.4z"/>
				<path class="st1" d="M73.8,113C73.8,113,73.8,113,73.8,113c0,0.1,0,0.1,0,0.1h-0.2c0,0,0-0.1,0-0.1L73.8,113z"/>
				<path class="st1" d="M92.6,156c-4.8-1.3-9.2-6.1-12.6-14c-3.4-7.8-5.6-17.8-6.3-29h0c0,0,0,0.1,0,0.1h0.2
					c0.7,11.1,2.9,21.1,6.3,28.8c3.4,7.8,7.7,12.6,12.5,13.9c0,0,0,0-0.1,0L92.6,156z"/>
			</g>
		</g>
	</g>
	<path class="st1" d="M110.9,96.7L110.9,96.7c-19.6-3.7-36.4-0.4-37.6-0.1l-0.1,0c-0.3,2.8,0.8,8,2.3,9.4c0.3,0.3,0.5,0.4,0.8,0.4
		c0,0,0.1,0,0.1,0l0-0.2c0,0,0,0,0,0c-0.2-2.2-0.1-4,0-5.2c1.1-0.2,15.2-3.4,31.2,0c0.2,1.3,0.2,3.1,0,5.3l0,0.2c0,0,0.1,0,0.1,0
		c0.3,0,0.5-0.1,0.8-0.4C110,104.7,111.1,99.6,110.9,96.7z"/>
</g>
</svg>
