<?xml version="1.0" encoding="utf-8"?>
<!-- Generator: Adobe Illustrator 27.1.1, SVG Export Plug-In . SVG Version: 6.00 Build 0)  -->
<svg version="1.1" id="Layer_1" xmlns="http://www.w3.org/2000/svg" xmlns:xlink="http://www.w3.org/1999/xlink" x="0px" y="0px"
	 viewBox="0 0 112.99 74.51" style="enable-background:new 0 0 112.99 74.51;" xml:space="preserve">
<style type="text/css">
	.st0{fill:#FFFFFF;}
</style>
<path class="st0" d="M5.62,72.53c-1.93,0-3.5-1.57-3.5-3.5V5.7c0-1.93,1.57-3.5,3.5-3.5h15.83c1.12,0,2.18,0.54,2.84,1.45
	c0.66,0.91,0.84,2.09,0.48,3.15L9.12,53.75v15.28C9.12,70.97,7.56,72.53,5.62,72.53z M9.12,9.2v22.43L16.6,9.2H9.12z"/>
<path class="st0" d="M107.17,2.29c-1.58-0.37-3.21,0.39-3.93,1.84L85.25,40.09l-6.64-13.29l9.77-19.55c0.86-1.73,0.16-3.83-1.57-4.7
	c-0.49-0.25-1.01-0.36-1.53-0.37c-0.01,0-0.03,0-0.04,0H43.03c0,0,0,0,0,0h0c-1.93,0-3.5,1.57-3.5,3.5v63.34
	c0,1.93,1.57,3.5,3.5,3.5c1.93,0,3.5-1.57,3.5-3.5V20.52L71.57,70.6c0,0,0,0,0.01,0.01c0.33,0.65,0.86,1.21,1.56,1.56
	c0.5,0.25,1.04,0.37,1.56,0.37c1.28,0,2.52-0.71,3.13-1.93l25.04-50.08v48.51c0,1.93,1.57,3.5,3.5,3.5c1.93,0,3.5-1.57,3.5-3.5V5.7
	C109.86,4.07,108.75,2.66,107.17,2.29z M74.7,61.21l-26-52.01h13.29l19.36,38.72L74.7,61.21z M69.81,9.2h9.78l-4.89,9.78L69.81,9.2z
	"/>
</svg>
